# Blender v2.83.18 OBJ File: 'mushroom.blend'
# www.blender.org
mtllib mushroom.mtl
o Mushroomstump_Cylinder
v 0.018547 -0.037484 -0.051989
v 0.022589 0.182548 -0.034936
v 0.033263 -0.037707 -0.038594
v 0.031158 0.182418 -0.027137
v 0.040069 -0.037910 -0.019894
v 0.035121 0.182300 -0.016249
v 0.037404 -0.038046 -0.000172
v 0.033569 0.182221 -0.004766
v 0.025880 -0.038085 0.016052
v 0.026859 0.182198 0.004681
v 0.008136 -0.038017 0.025063
v 0.016528 0.182238 0.009928
v -0.011763 -0.037858 0.024797
v 0.004942 0.182330 0.009773
v -0.029258 -0.037644 0.015313
v -0.005245 0.182455 0.004251
v -0.040341 -0.037425 -0.001215
v -0.011698 0.182582 -0.005373
v -0.042473 -0.037250 -0.021001
v -0.012940 0.182684 -0.016893
v -0.035166 -0.037160 -0.039512
v -0.008685 0.182736 -0.027671
v -0.020094 -0.037175 -0.052507
v 0.000091 0.182728 -0.035238
v -0.000710 -0.037292 -0.057010
v 0.011377 0.182660 -0.037860
v 0.009684 0.080318 -0.043493
v 0.020020 0.080161 -0.034085
v 0.024800 0.080019 -0.020952
v 0.022928 0.079923 -0.007101
v 0.014834 0.079896 0.004294
v 0.002373 0.079943 0.010623
v -0.011603 0.080055 0.010435
v -0.023890 0.080205 0.003775
v -0.031674 0.080359 -0.007833
v -0.033171 0.080482 -0.021729
v -0.028039 0.080545 -0.034729
v -0.017454 0.080534 -0.043856
v -0.003840 0.080452 -0.047019
v 0.008769 0.283334 -0.026381
v 0.014206 0.283252 -0.021432
v 0.016721 0.283177 -0.014523
v 0.015736 0.283126 -0.007236
v 0.011478 0.283112 -0.001242
v 0.004923 0.283137 0.002088
v -0.002429 0.283196 0.001989
v -0.008893 0.283275 -0.001515
v -0.012988 0.283356 -0.007621
v -0.013776 0.283420 -0.014932
v -0.011076 0.283454 -0.021771
v -0.005508 0.283448 -0.026572
v 0.001654 0.283405 -0.028236
v 0.008769 0.283334 -0.026381
v 0.014206 0.283252 -0.021432
v 0.016721 0.283177 -0.014523
v 0.015736 0.283126 -0.007236
v 0.011478 0.283112 -0.001242
v 0.004923 0.283137 0.002088
v -0.002429 0.283196 0.001989
v -0.008893 0.283275 -0.001515
v -0.012988 0.283356 -0.007621
v -0.013776 0.283420 -0.014932
v -0.011076 0.283454 -0.021771
v -0.005508 0.283448 -0.026572
v 0.001654 0.283405 -0.028236
v 0.016905 0.252397 -0.013249
v 0.122663 0.169440 0.077272
v -0.042569 0.207776 0.124846
v -0.151256 0.207960 0.000016
v -0.044913 0.206997 -0.131506
v 0.121132 0.168847 -0.085512
v 0.057609 0.241472 0.136180
v -0.112753 0.258291 0.085119
v -0.114542 0.258037 -0.087519
v 0.055580 0.238707 -0.148076
v 0.157958 0.212050 -0.004517
v 0.026077 0.325440 -0.011831
v -0.017146 0.229083 0.063421
v 0.079517 0.203830 0.036147
v 0.048486 0.194094 0.116442
v 0.142538 0.161701 -0.003863
v 0.079200 0.202904 -0.053958
v -0.082183 0.223226 -0.004950
v -0.114592 0.206457 0.075403
v -0.017753 0.228166 -0.080553
v -0.116223 0.206391 -0.077655
v 0.046551 0.192513 -0.127705
v 0.162282 0.179048 0.047488
v 0.161205 0.178735 -0.054050
v 0.005595 0.215632 0.162196
v 0.103014 0.193696 0.129904
v -0.157673 0.229049 0.051276
v -0.094732 0.224588 0.132247
v -0.097622 0.223941 -0.133199
v -0.158817 0.228820 -0.049965
v 0.100506 0.192175 -0.137567
v 0.002461 0.213856 -0.168213
v 0.126285 0.229473 0.077644
v -0.031680 0.263598 0.130060
v -0.134158 0.265853 -0.001094
v -0.033740 0.261818 -0.139100
v 0.125245 0.227894 -0.089895
v 0.047822 0.295330 0.075868
v 0.107928 0.278088 -0.010277
v -0.052058 0.306158 0.045748
v -0.052298 0.305501 -0.058829
v 0.047787 0.291970 -0.096531
vt 1.000000 0.750000
vt 1.000000 1.000000
vt 0.923077 1.000000
vt 0.923077 0.750000
vt 0.846154 1.000000
vt 0.846154 0.750000
vt 0.769231 1.000000
vt 0.769231 0.750000
vt 0.692308 1.000000
vt 0.692308 0.750000
vt 0.615385 1.000000
vt 0.615385 0.750000
vt 0.538462 1.000000
vt 0.538462 0.750000
vt 0.461538 1.000000
vt 0.461538 0.750000
vt 0.384615 1.000000
vt 0.384615 0.750000
vt 0.307692 1.000000
vt 0.307692 0.750000
vt 0.230769 1.000000
vt 0.230769 0.750000
vt 0.153846 1.000000
vt 0.153846 0.750000
vt 0.076923 1.000000
vt 0.076923 0.750000
vt 0.000000 1.000000
vt 0.000000 0.750000
vt 0.750000 0.490000
vt 0.861534 0.462509
vt 0.947516 0.386336
vt 0.988250 0.278929
vt 0.974404 0.164895
vt 0.909149 0.070357
vt 0.807436 0.016974
vt 0.692564 0.016974
vt 0.590851 0.070357
vt 0.525596 0.164895
vt 0.511750 0.278929
vt 0.552484 0.386336
vt 0.638467 0.462510
vt 0.923077 1.000000
vt 0.846154 1.000000
vt 0.384615 1.000000
vt 0.307692 1.000000
vt 0.769231 1.000000
vt 0.692308 1.000000
vt 0.230769 1.000000
vt 0.153846 1.000000
vt 0.615385 1.000000
vt 0.538462 1.000000
vt 0.076923 1.000000
vt 0.000000 1.000000
vt 1.000000 1.000000
vt 0.461538 1.000000
vt 0.076923 0.500000
vt 0.000000 0.500000
vt 0.153846 0.500000
vt 0.230769 0.500000
vt 0.307692 0.500000
vt 0.384615 0.500000
vt 0.461538 0.500000
vt 0.538462 0.500000
vt 0.615385 0.500000
vt 0.692308 0.500000
vt 0.769231 0.500000
vt 0.846154 0.500000
vt 0.923077 0.500000
vt 1.000000 0.500000
vt 0.769231 1.000000
vt 0.692308 1.000000
vt 0.361534 0.462509
vt 0.250000 0.490000
vt 0.138467 0.462510
vt 0.052484 0.386336
vt 0.011750 0.278929
vt 0.025596 0.164895
vt 0.090851 0.070357
vt 0.192564 0.016974
vt 0.307436 0.016974
vt 0.409149 0.070357
vt 0.474404 0.164895
vt 0.488250 0.278929
vt 0.447516 0.386336
vt 0.384615 1.000000
vt 0.307692 1.000000
vt 0.923077 1.000000
vt 0.846154 1.000000
vt 0.538462 1.000000
vt 0.461538 1.000000
vt 0.153846 1.000000
vt 0.076923 1.000000
vt 0.615385 1.000000
vt 0.230769 1.000000
vt 0.000000 1.000000
vt 1.000000 1.000000
vt 0.818181 0.000000
vt 0.772726 0.078731
vt 0.863635 0.078731
vt 0.727272 0.157461
vt 0.681818 0.078731
vt 0.636363 0.157461
vt 0.090909 0.000000
vt 0.045454 0.078731
vt 0.136363 0.078731
vt 0.272727 0.000000
vt 0.227273 0.078731
vt 0.318182 0.078731
vt 0.454545 0.000000
vt 0.409090 0.078731
vt 0.500000 0.078731
vt 0.681818 0.236191
vt 0.909090 0.157461
vt 0.818181 0.157461
vt 0.863635 0.236191
vt 0.181818 0.157461
vt 0.090909 0.157461
vt 0.136363 0.236191
vt 0.363636 0.157461
vt 0.272727 0.157461
vt 0.318182 0.236191
vt 0.545454 0.157461
vt 0.454545 0.157461
vt 0.500000 0.236191
vt 0.772726 0.236191
vt 0.954545 0.236191
vt 0.227273 0.236191
vt 0.409090 0.236191
vt 0.590909 0.236191
vt 0.818181 0.314921
vt 0.727272 0.314921
vt 0.772726 0.393651
vt 1.000000 0.314921
vt 0.909091 0.314921
vt 0.954545 0.393651
vt 0.272727 0.314921
vt 0.181818 0.314921
vt 0.227273 0.393651
vt 0.454545 0.314921
vt 0.363636 0.314921
vt 0.409090 0.393651
vt 0.636363 0.314921
vt 0.545454 0.314921
vt 0.590909 0.393651
vt 0.500000 0.393651
vt 0.545454 0.472382
vt 0.318182 0.393651
vt 0.363636 0.472382
vt 0.136363 0.393651
vt 0.181818 0.472382
vt 0.090909 0.314921
vt 0.863635 0.393651
vt 0.909090 0.472382
vt 0.681818 0.393651
vt 0.727272 0.472382
vt 0.045454 0.236191
vt 0.000000 0.157461
vt 0.590909 0.078731
vt 0.636363 0.000000
vn 0.6728 -0.0230 -0.7395
vn 0.9365 -0.0788 -0.3417
vn 0.9856 -0.1055 0.1324
vn 0.8115 -0.0976 0.5762
vn 0.4519 -0.0565 0.8903
vn -0.0133 0.0086 0.9999
vn -0.4742 0.0824 0.8766
vn -0.8206 0.1471 0.5522
vn -0.9763 0.1882 0.1069
vn -0.9122 0.1976 -0.3591
vn -0.6430 0.1733 -0.7460
vn -0.2239 0.1200 -0.9672
vn 0.2525 0.0490 -0.9664
vn -0.0079 -0.9999 -0.0080
vn 0.9259 0.1746 -0.3351
vn -0.9942 -0.0103 0.1071
vn 0.8051 0.1563 0.5722
vn -0.6527 0.0289 -0.7571
vn -0.0128 0.0760 0.9970
vn 0.2517 0.1161 -0.9608
vn 0.6664 0.1533 -0.7296
vn -0.8305 0.0018 0.5570
vn 0.9754 0.1756 0.1330
vn -0.9302 -0.0006 -0.3672
vn 0.4499 0.1205 0.8849
vn -0.2253 0.0711 -0.9717
vn -0.4760 0.0330 0.8788
vn 0.2522 0.0885 -0.9636
vn -0.2252 0.0764 -0.9713
vn -0.6514 0.0701 -0.7555
vn -0.9279 0.0711 -0.3659
vn -0.9911 0.0790 0.1075
vn -0.8265 0.0920 0.5554
vn -0.4728 0.1072 0.8746
vn -0.0123 0.1209 0.9926
vn 0.4493 0.1302 0.8838
vn 0.8079 0.1329 0.5742
vn 0.9827 0.1284 0.1337
vn 0.9336 0.1178 -0.3385
vn 0.6704 0.1034 -0.7348
vn 0.0000 0.0000 1.0000
vn 0.0079 0.9999 0.0080
vn -0.3368 -0.8488 -0.4077
vn -0.5830 -0.8098 -0.0656
vn 0.2651 -0.9490 -0.1709
vn 0.2918 -0.9379 0.1874
vn -0.3409 -0.8148 0.4689
vn 0.3539 -0.9189 0.1743
vn -0.1093 -0.9349 0.3376
vn -0.5573 -0.7901 0.2553
vn -0.2733 -0.8872 -0.3718
vn -0.0757 -0.9208 -0.3826
vn 0.5449 -0.6655 0.5101
vn -0.2135 -0.8635 0.4569
vn -0.9485 -0.3164 0.0114
vn -0.2537 -0.8375 -0.4839
vn 0.5629 -0.6478 -0.5133
vn 0.5477 0.6662 0.5061
vn -0.3233 0.8110 0.4876
vn -0.5359 0.8212 -0.1959
vn 0.1100 0.6995 -0.7061
vn 0.7899 0.5815 -0.1948
vn 0.4928 0.8450 -0.2076
vn 0.6205 0.7172 -0.3172
vn 0.5584 0.6177 -0.5538
vn -0.0140 0.9287 -0.3706
vn -0.0665 0.8699 -0.4888
vn -0.3613 0.7814 -0.5088
vn -0.2434 0.9699 -0.0055
vn -0.4385 0.8987 -0.0046
vn -0.5222 0.8285 0.2023
vn 0.0050 0.9462 0.3236
vn -0.0420 0.8878 0.4583
vn 0.1415 0.7497 0.6465
vn 0.4909 0.8542 0.1715
vn 0.6134 0.7384 0.2802
vn 0.7780 0.6044 0.1717
vn 0.8590 0.4491 -0.2458
vn 0.8089 0.1847 -0.5582
vn 0.6137 0.4452 -0.6521
vn 0.0586 0.5499 -0.8332
vn -0.2811 0.3339 -0.8997
vn -0.4360 0.6363 -0.6364
vn -0.6582 0.7216 -0.2147
vn -0.8373 0.5467 0.0082
vn -0.6447 0.7309 0.2242
vn -0.3929 0.6703 0.6296
vn -0.2261 0.4148 0.8814
vn 0.0955 0.6042 0.7911
vn 0.6108 0.4998 0.6141
vn 0.8058 0.2559 0.5340
vn 0.8518 0.4715 0.2284
vn 0.3154 0.0912 -0.9446
vn -0.0782 -0.9146 -0.3967
vn -0.1328 -0.9292 -0.3450
vn -0.7316 0.3880 -0.5606
vn -0.6208 -0.6635 -0.4175
vn -0.5703 -0.7851 -0.2414
vn -0.7045 0.4216 0.5709
vn -0.5956 -0.6814 0.4254
vn -0.2372 -0.8985 0.3694
vn 0.3503 0.2131 0.9121
vn -0.0934 -0.9317 0.3510
vn -0.1017 -0.9174 0.3848
vn 0.9935 0.1130 -0.0109
vn 0.6670 -0.7450 -0.0048
vn 0.3634 -0.9150 -0.1754
vn -0.4443 -0.8387 0.3149
vn -0.3108 -0.9125 0.2662
vn -0.1579 -0.8792 0.4495
vn 0.2153 -0.9371 0.2746
vn 0.2177 -0.9683 0.1223
vn 0.2225 -0.9675 0.1199
vn 0.2061 -0.9712 -0.1196
vn 0.2109 -0.9704 -0.1175
vn 0.1896 -0.9493 -0.2508
vn -0.5893 -0.8035 0.0842
vn -0.5511 -0.8344 0.0105
vn -0.6179 -0.7862 0.0102
vn -0.1718 -0.9065 -0.3856
vn -0.3063 -0.9236 -0.2304
vn -0.4292 -0.8618 -0.2704
usemtl Material.001
s off
f 27/1/1 2/2/1 4/3/1 28/4/1
f 28/4/2 4/3/2 6/5/2 29/6/2
f 29/6/3 6/5/3 8/7/3 30/8/3
f 30/8/4 8/7/4 10/9/4 31/10/4
f 31/10/5 10/9/5 12/11/5 32/12/5
f 32/12/6 12/11/6 14/13/6 33/14/6
f 33/14/7 14/13/7 16/15/7 34/16/7
f 34/16/8 16/15/8 18/17/8 35/18/8
f 35/18/9 18/17/9 20/19/9 36/20/9
f 36/20/10 20/19/10 22/21/10 37/22/10
f 37/22/11 22/21/11 24/23/11 38/24/11
f 38/24/12 24/23/12 26/25/12 39/26/12
f 39/26/13 26/25/13 2/27/13 27/28/13
f 1/29/14 3/30/14 5/31/14 7/32/14 9/33/14 11/34/14 13/35/14 15/36/14 17/37/14 19/38/14 21/39/14 23/40/14 25/41/14
f 6/5/15 4/3/15 41/42/15 42/43/15
f 20/19/16 18/17/16 48/44/16 49/45/16
f 10/9/17 8/7/17 43/46/17 44/47/17
f 24/23/18 22/21/18 50/48/18 51/49/18
f 14/13/19 12/11/19 45/50/19 46/51/19
f 2/27/20 26/25/20 52/52/20 40/53/20
f 4/3/21 2/2/21 40/54/21 41/42/21
f 18/17/22 16/15/22 47/55/22 48/44/22
f 8/7/23 6/5/23 42/43/23 43/46/23
f 22/21/24 20/19/24 49/45/24 50/48/24
f 12/11/25 10/9/25 44/47/25 45/50/25
f 26/25/26 24/23/26 51/49/26 52/52/26
f 16/15/27 14/13/27 46/51/27 47/55/27
f 25/56/28 39/26/28 27/28/28 1/57/28
f 23/58/29 38/24/29 39/26/29 25/56/29
f 21/59/30 37/22/30 38/24/30 23/58/30
f 19/60/31 36/20/31 37/22/31 21/59/31
f 17/61/32 35/18/32 36/20/32 19/60/32
f 15/62/33 34/16/33 35/18/33 17/61/33
f 13/63/34 33/14/34 34/16/34 15/62/34
f 11/64/35 32/12/35 33/14/35 13/63/35
f 9/65/36 31/10/36 32/12/36 11/64/36
f 7/66/37 30/8/37 31/10/37 9/65/37
f 5/67/38 29/6/38 30/8/38 7/66/38
f 3/68/39 28/4/39 29/6/39 5/67/39
f 1/69/40 27/1/40 28/4/40 3/68/40
f 44/47/41 43/46/41 56/70/41 57/71/41
f 54/72/42 53/73/42 65/74/42 64/75/42 63/76/42 62/77/42 61/78/42 60/79/42 59/80/42 58/81/42 57/82/42 56/83/42 55/84/42
f 49/45/41 48/44/41 61/85/41 62/86/41
f 42/43/41 41/42/41 54/87/41 55/88/41
f 47/55/41 46/51/41 59/89/41 60/90/41
f 52/52/41 51/49/41 64/91/41 65/92/41
f 45/50/41 44/47/41 57/71/41 58/93/41
f 50/48/41 49/45/41 62/86/41 63/94/41
f 43/46/41 42/43/41 55/88/41 56/70/41
f 48/44/41 47/55/41 60/90/41 61/85/41
f 40/53/41 52/52/41 65/92/41 53/95/41
f 41/42/41 40/54/41 53/96/41 54/87/41
f 46/51/41 45/50/41 58/93/41 59/89/41
f 51/49/41 50/48/41 63/94/41 64/91/41
usemtl Material
f 66/97/43 79/98/43 78/99/43
f 67/100/44 79/101/44 81/102/44
f 66/103/45 78/104/45 83/105/45
f 66/106/46 83/107/46 85/108/46
f 66/109/47 85/110/47 82/111/47
f 67/100/48 81/102/48 88/112/48
f 68/113/49 80/114/49 90/115/49
f 69/116/50 84/117/50 92/118/50
f 70/119/51 86/120/51 94/121/51
f 71/122/52 87/123/52 96/124/52
f 67/100/53 88/112/53 91/125/53
f 68/113/54 90/115/54 93/126/54
f 69/116/55 92/118/55 95/127/55
f 70/119/56 94/121/56 97/128/56
f 71/122/57 96/124/57 89/129/57
f 72/130/58 98/131/58 103/132/58
f 73/133/59 99/134/59 105/135/59
f 74/136/60 100/137/60 106/138/60
f 75/139/61 101/140/61 107/141/61
f 76/142/62 102/143/62 104/144/62
f 104/144/63 107/145/63 77/146/63
f 104/144/64 102/143/64 107/145/64
f 102/143/65 75/139/65 107/145/65
f 107/141/66 106/147/66 77/148/66
f 107/141/67 101/140/67 106/147/67
f 101/140/68 74/136/68 106/147/68
f 106/138/69 105/149/69 77/150/69
f 106/138/70 100/137/70 105/149/70
f 100/137/71 73/151/71 105/149/71
f 105/135/72 103/152/72 77/153/72
f 105/135/73 99/134/73 103/152/73
f 99/134/74 72/130/74 103/152/74
f 103/132/75 104/154/75 77/155/75
f 103/132/76 98/131/76 104/154/76
f 98/131/77 76/142/77 104/154/77
f 89/129/78 102/143/78 76/142/78
f 89/129/79 96/124/79 102/143/79
f 96/124/80 75/139/80 102/143/80
f 97/128/81 101/140/81 75/139/81
f 97/128/82 94/121/82 101/140/82
f 94/121/83 74/136/83 101/140/83
f 95/127/84 100/137/84 74/136/84
f 95/127/85 92/118/85 100/137/85
f 92/118/86 73/151/86 100/137/86
f 93/126/87 99/134/87 73/133/87
f 93/126/88 90/115/88 99/134/88
f 90/115/89 72/130/89 99/134/89
f 91/125/90 98/131/90 72/130/90
f 91/125/91 88/112/91 98/131/91
f 88/112/92 76/142/92 98/131/92
f 96/124/93 97/128/93 75/139/93
f 96/124/94 87/123/94 97/128/94
f 87/123/95 70/119/95 97/128/95
f 94/121/96 95/127/96 74/136/96
f 94/121/97 86/120/97 95/127/97
f 86/120/98 69/116/98 95/127/98
f 92/118/99 93/156/99 73/151/99
f 92/118/100 84/117/100 93/156/100
f 84/117/101 68/157/101 93/156/101
f 90/115/102 91/125/102 72/130/102
f 90/115/103 80/114/103 91/125/103
f 80/114/104 67/100/104 91/125/104
f 88/112/105 89/129/105 76/142/105
f 88/112/106 81/102/106 89/129/106
f 81/102/107 71/122/107 89/129/107
f 82/111/108 87/123/108 71/122/108
f 82/111/109 85/110/109 87/123/109
f 85/110/110 70/119/110 87/123/110
f 85/108/111 86/120/111 70/119/111
f 85/108/112 83/107/112 86/120/112
f 83/107/113 69/116/113 86/120/113
f 83/105/114 84/117/114 69/116/114
f 83/105/115 78/104/115 84/117/115
f 78/104/116 68/157/116 84/117/116
f 81/102/117 82/158/117 71/122/117
f 81/102/118 79/101/118 82/158/118
f 79/101/119 66/159/119 82/158/119
f 78/99/120 80/114/120 68/113/120
f 78/99/121 79/98/121 80/114/121
f 79/98/122 67/100/122 80/114/122
